HIERARCHY
ROOT Hips
{
	OFFSET 0.00000 0.00000 0.00000
	CHANNELS 6 Xposition Yposition Zposition Zrotation Yrotation Xrotation 
	JOINT LHipJoint
	{
		OFFSET 0 0 0
		CHANNELS 3 Zrotation Yrotation Xrotation
		JOINT LeftUpLeg
		{
			OFFSET 1.30186 -1.90722 0.65024
			CHANNELS 3 Zrotation Yrotation Xrotation
			JOINT LeftLeg
			{
				OFFSET 2.56413 -7.04489 0.00000
				CHANNELS 3 Zrotation Yrotation Xrotation
				JOINT LeftFoot
				{
					OFFSET 2.79321 -7.67428 0.00000
					CHANNELS 3 Zrotation Yrotation Xrotation
					JOINT LeftToeBase
					{
						OFFSET 0.15723 -0.43198 2.08537
						CHANNELS 3 Zrotation Yrotation Xrotation
						End Site
						{
							OFFSET 0.00000 -0.00000 1.07411
						}
					}
				}
			}
		}
	}
	JOINT RHipJoint
	{
		OFFSET 0 0 0
		CHANNELS 3 Zrotation Yrotation Xrotation
		JOINT RightUpLeg
		{
			OFFSET -1.28627 -1.90723 0.65024
			CHANNELS 3 Zrotation Yrotation Xrotation
			JOINT RightLeg
			{
				OFFSET -2.56567 -7.04913 0.00000
				CHANNELS 3 Zrotation Yrotation Xrotation
				JOINT RightFoot
				{
					OFFSET -2.75597 -7.57198 0.00000
					CHANNELS 3 Zrotation Yrotation Xrotation
					JOINT RightToeBase
					{
						OFFSET -0.17500 -0.48081 2.22901
						CHANNELS 3 Zrotation Yrotation Xrotation
						End Site
						{
							OFFSET -0.00000 -0.00000 1.14762
						}
					}
				}
			}
		}
	}
	JOINT LowerBack
	{
		OFFSET 0 0 0
		CHANNELS 3 Zrotation Yrotation Xrotation
		JOINT Spine
		{
			OFFSET -0.04522 2.07467 -0.16566
			CHANNELS 3 Zrotation Yrotation Xrotation
			JOINT Spine1
			{
				OFFSET -0.01178 2.08825 -0.05393
				CHANNELS 3 Zrotation Yrotation Xrotation
				JOINT Neck
				{
					OFFSET 0 0 0
					CHANNELS 3 Zrotation Yrotation Xrotation
					JOINT Neck1
					{
						OFFSET -0.05182 1.80489 0.16014
						CHANNELS 3 Zrotation Yrotation Xrotation
						JOINT Head
						{
							OFFSET 0.14739 1.78840 -0.33342
							CHANNELS 3 Zrotation Yrotation Xrotation
							End Site
							{
								OFFSET 0.04364 1.83899 -0.13460
							}
						}
					}
				}
				JOINT LeftShoulder
				{
					OFFSET 0 0 0
					CHANNELS 3 Zrotation Yrotation Xrotation
					JOINT LeftArm
					{
						OFFSET 3.01264 1.29090 -0.06579
						CHANNELS 3 Zrotation Yrotation Xrotation
						JOINT LeftForeArm
						{
							OFFSET 5.55680 -0.00000 0.00000
							CHANNELS 3 Zrotation Yrotation Xrotation
							JOINT LeftHand
							{
								OFFSET 3.63979 -0.00000 -0.00000
								CHANNELS 3 Zrotation Yrotation Xrotation
								JOINT LeftFingerBase
								{
									OFFSET 0 0 0
									CHANNELS 3 Zrotation Yrotation Xrotation
									JOINT LeftHandIndex1
									{
										OFFSET 0.56942 -0.00000 -0.00000
										CHANNELS 3 Zrotation Yrotation Xrotation
										End Site
										{
											OFFSET 0.45908 -0.00000 -0.00000
										}
									}
								}
								JOINT LThumb
								{
									OFFSET 0 0 0
									CHANNELS 3 Zrotation Yrotation Xrotation
									End Site
									{
										OFFSET 0.46609 -0.00000 0.46609
									}
								}
							}
						}
					}
				}
				JOINT RightShoulder
				{
					OFFSET 0 0 0
					CHANNELS 3 Zrotation Yrotation Xrotation
					JOINT RightArm
					{
						OFFSET -3.15796 1.37283 -0.36748
						CHANNELS 3 Zrotation Yrotation Xrotation
						JOINT RightForeArm
						{
							OFFSET -5.34339 -0.00000 0.00000
							CHANNELS 3 Zrotation Yrotation Xrotation
							JOINT RightHand
							{
								OFFSET -3.65101 -0.00000 -0.00000
								CHANNELS 3 Zrotation Yrotation Xrotation
								JOINT RightFingerBase
								{
									OFFSET 0 0 0
									CHANNELS 3 Zrotation Yrotation Xrotation
									JOINT RightHandIndex1
									{
										OFFSET -0.69425 -0.00000 -0.00000
										CHANNELS 3 Zrotation Yrotation Xrotation
										End Site
										{
											OFFSET -0.55972 -0.00000 -0.00000
										}
									}
								}
								JOINT RThumb
								{
									OFFSET 0 0 0
									CHANNELS 3 Zrotation Yrotation Xrotation
									End Site
									{
										OFFSET -0.56827 -0.00000 0.56827
									}
								}
							}
						}
					}
				}
			}
		}
	}
}
MOTION
Frames: 8
Frame Time: .0083333
10.5376 18.4627 -7.4872 0 0 0 0 0 0 -21 0 0 0 0 0 0 0 0 0 0 0 0 0 0 21 0 0 0 0 0 0 0 0 0 0 0 0 0 0 0 0 0 0 0 0 0 0 -16 0 0 21 0 0 11 0 0 0 -8 0 0 0 0 0 0 0 0 0 0 0 0 0 0 0 0 0 0 0 0 8 0 0 0 0 0 0 0 0 0 0 0 0 0 0 0 0 0
10.5376 18.4627 -7.4872 -0.8763 -5.9818 2.5836 0.0000 0.0000 0.0000 -8.9185 -15.2682 -19.6344 0.2242 3.0476 8.4114 0.3062 10.7298 -19.2172 0.2604 -3.2827 -9.0668 0.0000 0.0000 0.0000 24.0653 6.8406 10.9922 -0.3197 -3.6344 10.0504 -0.2925 -3.2431 -11.9369 -0.1062 2.1012 -5.7856 2.6621 -0.3140 2.5796 2.8839 -0.4151 2.8181 1.4731 -0.1926 1.4498 -9.6454 -11.5988 -6.1952 8.3285 -18.1660 32.6337 2.2613 -8.2757 13.8270 0.0000 -0.0000 0.0000 -83.0076 11.0096 7.5687 22.9983 -34.0869 -7.1373 -0.0000 0.0000 -33.6717 9.1847 25.8045 4.0261 -7.1250 0.0000 -0.0000 -21.7967 54.7177 -5.3947 0.0000 -0.0000 0.0000 84.9579 -15.2723 24.3491 -47.8913 52.1088 -24.4999 0.0000 -0.0000 -23.2111 -13.2037 33.1220 -7.3055 7.1250 -0.0000 -0.0000 10.5585 3.3415 11.3459
10.5715 18.4626 -7.3522 -0.8353 -6.2029 2.4263 0.0000 0.0000 0.0000 -9.2948 -15.1285 -19.4348 0.2305 3.0899 8.5291 0.3059 10.6058 -19.0747 0.3118 -3.5900 -9.9259 0.0000 0.0000 0.0000 23.7887 6.5121 11.6487 -0.3027 -3.5377 9.7796 -0.2786 -2.8873 -11.4615 -0.0810 1.8364 -5.0537 2.6393 -0.2436 2.7908 2.8381 -0.3136 2.8740 1.4383 -0.1422 1.3882 -9.2913 -11.6313 -6.0264 7.9880 -18.1049 32.2366 2.1018 -8.2667 13.5213 -0.0000 -0.0000 0.0000 -83.0504 11.1523 7.9672 23.0074 -34.0969 -7.1424 -0.0000 0.0000 -34.9026 10.5172 23.0142 4.1513 -7.1250 0.0000 -0.0000 -18.9557 52.3419 -3.5291 -0.0000 -0.0000 0.0000 84.8404 -15.5893 24.5240 -48.8355 52.5149 -25.2471 0.0000 -0.0000 -23.5871 -13.5077 32.7315 -7.4006 7.1250 -0.0000 -0.0000 10.3519 3.0050 11.0587
10.6028 18.4650 -7.2164 -1.1477 -6.5641 2.4133 0.0000 0.0000 0.0000 -9.2729 -14.8794 -19.4619 0.2534 3.2388 8.9443 0.2938 10.5713 -18.8992 0.4938 -4.5052 -12.5026 0.0000 0.0000 0.0000 23.9510 6.5707 12.1766 -0.2977 -3.5085 9.6980 -0.2666 -2.6468 -11.0953 -0.1056 2.0950 -5.7681 2.8457 -0.1933 2.9688 2.8880 -0.2324 2.8037 1.3733 -0.1001 1.2155 -9.1464 -11.6623 -5.2809 7.9445 -18.1158 31.6014 2.1174 -8.3137 13.0672 -0.0000 -0.0000 0.0000 -83.1954 11.6651 7.7333 23.2484 -34.3593 -7.2780 -0.0000 0.0000 -35.3797 11.9375 22.3929 4.6047 -7.1250 0.0000 -0.0000 -17.2845 51.9900 -3.0499 -0.0000 -0.0000 0.0000 84.8732 -16.0636 24.5765 -49.6331 52.8465 -25.8815 0.0000 -0.0000 -23.4626 -13.1247 32.7016 -7.1797 7.1250 -0.0000 -0.0000 10.5628 2.9147 11.2757
10.6333 18.4587 -7.0762 -1.4520 -6.7712 2.4592 0.0000 0.0000 0.0000 -9.2476 -14.7452 -19.3991 0.2704 3.3448 9.2402 0.3078 10.3358 -18.7961 0.4402 -4.2571 -11.8011 0.0000 0.0000 0.0000 24.1351 6.6315 12.5959 -0.3049 -3.5502 9.8146 -0.2539 -2.5207 -10.7891 -0.1513 2.5061 -6.9067 3.0926 -0.2177 2.9453 2.8412 -0.2618 2.8137 1.1876 -0.1102 1.2382 -8.9457 -11.6055 -5.2520 7.8652 -18.0333 31.5386 2.0742 -8.2703 12.9918 0.0000 0.0000 0.0000 -83.2610 12.0313 7.0503 23.5671 -34.7031 -7.4587 -0.0000 0.0000 -35.4843 12.2362 21.6215 4.5688 -7.1250 0.0000 -0.0000 -16.6423 51.2962 -2.6430 0.0000 0.0000 0.0000 85.0471 -16.2417 24.7831 -50.0675 53.0227 -26.2281 0.0000 -0.0000 -23.4158 -13.1948 33.1047 -7.2971 7.1250 -0.0000 -0.0000 10.5619 3.3231 11.3464
10.6608 18.4475 -6.9338 -1.4178 -6.8338 2.4804 0.0000 0.0000 0.0000 -9.5398 -14.8110 -19.4487 0.3116 3.5886 9.9219 0.3204 9.8608 -18.4197 0.2577 -3.2660 -9.0201 0.0000 0.0000 0.0000 23.9484 6.4028 12.9652 -0.3086 -3.5713 9.8735 -0.2378 -2.3381 -10.3775 -0.1931 2.8303 -7.8065 2.8519 -0.3699 2.6391 2.7405 -0.4932 3.0572 1.2208 -0.2248 1.6606 -8.3828 -11.3843 -6.2325 7.4461 -17.6529 31.8805 1.8273 -8.0391 13.1859 -0.0000 -0.0000 0.0000 -83.3480 11.9584 6.1656 23.8221 -34.9755 -7.6043 -0.0000 0.0000 -35.6186 11.2605 21.3016 4.1370 -7.1250 0.0000 -0.0000 -17.4299 50.8302 -2.5710 -0.0000 -0.0000 0.0000 84.9087 -15.8142 25.5203 -50.1935 53.0733 -26.3288 0.0000 -0.0000 -23.5546 -13.9489 33.4730 -7.8006 7.1250 -0.0000 -0.0000 10.1804 3.8086 11.0046
10.6846 18.4397 -6.7864 -1.5259 -6.8707 2.5130 0.0000 0.0000 0.0000 -10.0918 -13.6782 -19.8358 0.3630 3.8702 10.7119 0.2652 8.9978 -16.8107 0.3647 -3.8793 -10.7373 0.0000 0.0000 0.0000 23.9142 6.0998 13.2854 -0.3116 -3.5887 9.9224 -0.2268 -1.9895 -9.9537 -0.1717 2.6691 -7.3589 2.7055 -0.4295 2.2956 2.7866 -0.6005 3.2698 1.3487 -0.2785 2.0744 -8.2962 -11.3110 -6.8993 7.4217 -17.5417 32.0679 1.7769 -7.9499 13.3826 0.0000 0.0000 0.0000 -83.4594 11.7387 5.7470 23.9235 -35.0833 -7.6626 -0.0000 0.0000 -35.7238 10.4623 22.1625 3.9848 -7.1250 0.0000 -0.0000 -18.5894 51.5236 -3.0759 0.0000 0.0000 0.0000 84.6946 -15.5168 25.6989 -50.4941 53.1929 -26.5693 0.0000 -0.0000 -23.5076 -13.9574 32.7154 -7.6506 7.1250 -0.0000 -0.0000 10.0993 3.0617 10.7897
10.7142 18.4350 -6.6303 -1.9563 -7.0813 2.4208 0.0000 0.0000 0.0000 -10.3268 -12.5204 -19.9305 0.4191 4.1552 11.5136 0.2165 8.5114 -15.6275 0.6885 -5.3048 -14.7800 0.0000 0.0000 0.0000 24.1860 5.9098 13.8113 -0.3138 -3.6009 9.9564 -0.2210 -1.5845 -9.6054 -0.1419 2.4277 -6.6891 3.1575 -0.2811 2.4471 2.8380 -0.3877 3.1709 1.1484 -0.1650 1.8852 -8.6952 -11.4334 -6.6644 7.7729 -17.8065 32.1879 1.9386 -8.0763 13.5036 -0.0000 -0.0000 0.0000 -83.3972 12.0750 6.0027 24.0676 -35.2357 -7.7455 -0.0000 0.0000 -35.7516 11.3993 16.4368 3.2652 -7.1250 0.0000 -0.0000 -15.4067 46.1377 -0.4430 -0.0000 -0.0000 0.0000 84.8328 -16.1771 25.1979 -51.2865 53.5014 -27.2050 0.0000 -0.0000 -23.6882 -12.9248 32.0062 -6.9348 7.1250 -0.0000 -0.0000 10.6118 2.1978 11.2020
